HIERARCHY
ROOT hip
{
  OFFSET 0 0 0
  CHANNELS 6 Xposition Yposition Zposition Zrotation Yrotation Xrotation
  JOINT abdomen
  {
    OFFSET 0 20.6881 -0.73152
    CHANNELS 3 Zrotation Xrotation Yrotation
    JOINT chest
    {
      OFFSET 0 11.7043 -0.48768
      CHANNELS 3 Zrotation Xrotation Yrotation
      JOINT neck
      {
        OFFSET 0 22.1894 -2.19456
        CHANNELS 3 Zrotation Xrotation Yrotation
        JOINT head
        {
          OFFSET -0.24384 7.07133 1.2192
          CHANNELS 3 Zrotation Xrotation Yrotation
          JOINT leftEye
          {
            OFFSET 4.14528 8.04674 8.04672
            CHANNELS 3 Zrotation Xrotation Yrotation
            End Site
            {
              OFFSET 1 0 0
            }
          }
          JOINT rightEye
          {
            OFFSET -3.6576 8.04674 8.04672
            CHANNELS 3 Zrotation Xrotation Yrotation
            End Site
            {
              OFFSET 1 0 0
            }
          }
        }
      }
      JOINT rCollar
      {
        OFFSET -2.68224 19.2634 -4.8768
        CHANNELS 3 Zrotation Xrotation Yrotation
        JOINT rShldr
        {
          OFFSET -8.77824 -1.95073 1.46304
          CHANNELS 3 Zrotation Xrotation Yrotation
          JOINT rForeArm
          {
            OFFSET -28.1742 -1.7115 0.48768
            CHANNELS 3 Zrotation Xrotation Yrotation
            JOINT rHand
            {
              OFFSET -22.5879 0.773209 7.07136
              CHANNELS 3 Zrotation Xrotation Yrotation
              JOINT rThumb1
              {
                OFFSET -1.2192 -0.487915 3.41376
                CHANNELS 3 Zrotation Xrotation Yrotation
                JOINT rThumb2
                {
                  OFFSET -3.37035 -0.52449 3.41376
                  CHANNELS 3 Zrotation Xrotation Yrotation
                  End Site
                  {
                    OFFSET -1.78271 -1.18214 1.43049
                  }
                }
              }
              JOINT rIndex1
              {
                OFFSET -7.75947 0.938293 5.60832
                CHANNELS 3 Zrotation Xrotation Yrotation
                JOINT rIndex2
                {
                  OFFSET -2.54057 -0.884171 1.56538
                  CHANNELS 3 Zrotation Xrotation Yrotation
                  End Site
                  {
                    OFFSET -1.62519 -0.234802 1.16502
                  }
                }
              }
              JOINT rMid1
              {
                OFFSET -8.24714 1.18213 3.41376
                CHANNELS 3 Zrotation Xrotation Yrotation
                JOINT rMid2
                {
                  OFFSET -3.10165 -0.590103 1.0647
                  CHANNELS 3 Zrotation Xrotation Yrotation
                  End Site
                  {
                    OFFSET -2.48547 -0.328903 0.83742
                  }
                }
              }
              JOINT rRing1
              {
                OFFSET -8.82822 0.546677 1.51678
                CHANNELS 3 Zrotation Xrotation Yrotation
                JOINT rRing2
                {
                  OFFSET -2.60934 -0.819778 -0.0198488
                  CHANNELS 3 Zrotation Xrotation Yrotation
                  End Site
                  {
                    OFFSET -2.33842 -0.294052 0.168128
                  }
                }
              }
              JOINT rPinky1
              {
                OFFSET -8.27202 -0.0477905 -0.4584
                CHANNELS 3 Zrotation Xrotation Yrotation
                JOINT rPinky2
                {
                  OFFSET -1.82734 -0.647385 -0.700984
                  CHANNELS 3 Zrotation Xrotation Yrotation
                  End Site
                  {
                    OFFSET -1.69225 -0.51767 -0.607171
                  }
                }
              }
            }
          }
        }
      }
      JOINT lCollar
      {
        OFFSET 2.68224 19.2634 -4.8768
        CHANNELS 3 Zrotation Xrotation Yrotation
        JOINT lShldr
        {
          OFFSET 8.77824 -1.95073 1.46304
          CHANNELS 3 Zrotation Xrotation Yrotation
          JOINT lForeArm
          {
            OFFSET 28.1742 -1.7115 0.48768
            CHANNELS 3 Zrotation Xrotation Yrotation
            JOINT lHand
            {
              OFFSET 22.5879 0.773209 7.07136
              CHANNELS 3 Zrotation Xrotation Yrotation
              JOINT lThumb1
              {
                OFFSET 1.2192 -0.487915 3.41376
                CHANNELS 3 Zrotation Xrotation Yrotation
                JOINT lThumb2
                {
                  OFFSET 3.37035 -0.52449 3.41376
                  CHANNELS 3 Zrotation Xrotation Yrotation
                  End Site
                  {
                    OFFSET 1.78271 -1.18214 1.43049
                  }
                }
              }
              JOINT lIndex1
              {
                OFFSET 7.75947 0.938293 5.60832
                CHANNELS 3 Zrotation Xrotation Yrotation
                JOINT lIndex2
                {
                  OFFSET 2.54057 -0.884171 1.56538
                  CHANNELS 3 Zrotation Xrotation Yrotation
                  End Site
                  {
                    OFFSET 1.62519 -0.234802 1.16502
                  }
                }
              }
              JOINT lMid1
              {
                OFFSET 8.24714 1.18213 3.41376
                CHANNELS 3 Zrotation Xrotation Yrotation
                JOINT lMid2
                {
                  OFFSET 3.10165 -0.590103 1.0647
                  CHANNELS 3 Zrotation Xrotation Yrotation
                  End Site
                  {
                    OFFSET 2.48547 -0.328903 0.83742
                  }
                }
              }
              JOINT lRing1
              {
                OFFSET 8.82822 0.546677 1.51678
                CHANNELS 3 Zrotation Xrotation Yrotation
                JOINT lRing2
                {
                  OFFSET 2.60934 -0.819778 -0.0198488
                  CHANNELS 3 Zrotation Xrotation Yrotation
                  End Site
                  {
                    OFFSET 2.33842 -0.294052 0.168128
                  }
                }
              }
              JOINT lPinky1
              {
                OFFSET 8.27202 -0.0477905 -0.4584
                CHANNELS 3 Zrotation Xrotation Yrotation
                JOINT lPinky2
                {
                  OFFSET 1.82734 -0.647385 -0.700984
                  CHANNELS 3 Zrotation Xrotation Yrotation
                  End Site
                  {
                    OFFSET 1.69225 -0.51767 -0.607171
                  }
                }
              }
            }
          }
        }
      }
    }
  }
  JOINT rButtock
  {
    OFFSET -8.77824 4.35084 1.2192
    CHANNELS 3 Zrotation Xrotation Yrotation
    JOINT rThigh
    {
      OFFSET 0 -1.70687 -2.19456
      CHANNELS 3 Zrotation Xrotation Yrotation
      JOINT rShin
      {
        OFFSET 0 -36.8199 0.73152
        CHANNELS 3 Zrotation Xrotation Yrotation
        JOINT rFoot
        {
          OFFSET 0.73152 -45.1104 -5.12064
          CHANNELS 3 Zrotation Xrotation Yrotation
          End Site
          {
            OFFSET -1.1221 -3.69964 12.103
          }
        }
      }
    }
  }
  JOINT lButtock
  {
    OFFSET 8.77824 4.35084 1.2192
    CHANNELS 3 Zrotation Xrotation Yrotation
    JOINT lThigh
    {
      OFFSET 0 -1.70687 -2.19456
      CHANNELS 3 Zrotation Xrotation Yrotation
      JOINT lShin
      {
        OFFSET 0 -36.8199 0.73152
        CHANNELS 3 Zrotation Xrotation Yrotation
        JOINT lFoot
        {
          OFFSET -0.73152 -45.1104 -5.12064
          CHANNELS 3 Zrotation Xrotation Yrotation
          End Site
          {
            OFFSET 1.1221 -3.69964 12.103
          }
        }
      }
    }
  }
}
MOTION
Frames:	5
Frame Time:	0.00833333
-104.439 85.1237 18.153 0.0 0.0 0.0 0.435974 -0.0238512 0.0128202 0.121275 -0.0396248 0.0210494 9.48043e-16 7.95139e-16 -5.59082e-17 2.72708e-15 9.54166e-15 -1.28899e-16 -0.0 0.0 0.0 -0.0 0.0 0.0 4.95368e-16 -4.9502e-17 9.93923e-17 1.07204e-14 -6.7711e-16 3.97569e-16 1.52518e-13 -7.7526e-14 -2.54444e-14 1.78493e-12 -1.16836e-13 -9.54166e-14 4.20021e-12 -4.28331e-13 -2.44903e-13 7.23735e-12 -7.4743e-13 -4.10292e-13 4.20469e-12 -4.2858e-13 -2.44903e-13 7.73091 5.47488 0.417314 4.19798e-12 -4.2848e-13 -2.35361e-13 2.90554 0.965183 0.102902 4.20384e-12 -4.28282e-13 -2.37746e-13 10.2786 0.731801 0.0259123 4.19416e-12 -4.24206e-13 -2.29e-13 2.22167 -0.733487 -0.20892 2.99805e-16 -5.08609e-17 -1.49089e-16 7.5644e-15 -1.19892e-15 -1.39149e-15 1.58978e-13 1.23246e-14 -1.27222e-14 1.77153e-12 -2.19558e-13 -9.85972e-14 4.19212e-12 -4.50955e-13 -2.35361e-13 7.24689e-12 -7.82416e-13 -4.12677e-13 4.18839e-12 -4.54819e-13 -2.35361e-13 -7.73091 5.47488 -0.417314 4.19257e-12 -4.51241e-13 -2.41722e-13 -2.90554 0.965183 -0.102902 4.18619e-12 -4.51341e-13 -2.38542e-13 -10.2786 0.731801 -0.0259123 4.19774e-12 -4.48458e-13 -2.44903e-13 -2.22167 -0.733487 0.20892 -2.03217e-16 0.0 -3.88251e-19 0.651914 -4.7111 -0.0694741 -0.000843568 2.99808 0.00382346 -0.326305 1.72324 0.0697781 2.03217e-16 0.0 3.88251e-19 0.0330733 -2.68025 0.0231616 0.00579546 -0.679764 0.0505463 0.296228 3.3702 -0.0966896
-95.5563 82.1833 8.68162 15.9902 86.4169 23.1767 1.65742 2.58824 8.06367 -11.4256 -6.48723 0.29042 2.40327 0.826614 -2.751 3.942 10.2258 -4.92579 -0.0 0.0 0.0 -0.0 0.0 0.0 -5.8002e-15 -2.92726e-14 4.41286e-15 30.3404 -0.205547 -8.84609 -7.79746 -4.74063 10.6023 0.00068852 -0.621313 -0.0873041 -1.05411e-10 -3.02601e-10 3.95564e-10 -1.84008e-10 -5.24937e-10 6.86025e-10 -1.05406e-10 -3.02601e-10 3.95561e-10 7.73091 5.47488 0.417314 -1.05412e-10 -3.02602e-10 3.9557e-10 2.90554 0.965183 0.102902 -1.05407e-10 -3.02601e-10 3.95567e-10 10.2786 0.731801 0.0259123 -1.05415e-10 -3.02597e-10 3.95572e-10 2.22167 -0.733487 -0.20892 -5.97199e-15 -2.92681e-14 4.14963e-15 -10.2245 17.8495 0.549557 7.30051 -4.29626 -10.143 -4.96317e-05 0.156281 -0.0219635 -2.396e-11 -4.60727e-10 -3.18713e-10 -4.11899e-11 -7.98495e-10 -5.52522e-10 -2.39626e-11 -4.60729e-10 -3.18711e-10 -7.73091 5.47488 -0.417314 -2.39591e-11 -4.60726e-10 -3.18717e-10 -2.90554 0.965183 -0.102902 -2.39664e-11 -4.60726e-10 -3.18714e-10 -10.2786 0.731801 -0.0259123 -2.39566e-11 -4.60723e-10 -3.18723e-10 -2.22167 -0.733487 0.20892 -2.03217e-16 0.0 -3.88251e-19 0.0573998 -12.5536 -0.731328 0.0843485 10.8902 0.298569 -0.68301 -1.63664 -6.12252 2.03217e-16 0.0 3.88251e-19 -4.32532 -4.28964 -5.10611 -0.0132273 3.43094 -0.0508181 0.219492 -3.02859 4.8384
-94.4971 82.3388 8.44799 21.1685 86.251 28.2011 2.17399 5.19333 16.6396 -23.5755 -13.2966 0.590365 5.01722 1.69503 -5.66155 10.141 20.7742 -10.6757 -0.0 0.0 0.0 -0.0 0.0 0.0 -1.11837e-14 -6.23467e-14 7.88306e-15 62.3396 -0.382029 -18.1796 -14.1325 -9.18095 22.0033 -0.000725094 -1.30319 -0.183155 -2.61691e-10 -6.49575e-10 8.37162e-10 -4.56179e-10 -1.12688e-09 1.45206e-09 -2.61687e-10 -6.49575e-10 8.37156e-10 7.73091 5.47488 0.417314 -2.61692e-10 -6.49576e-10 8.37164e-10 2.90554 0.965183 0.102902 -2.61687e-10 -6.49576e-10 8.37162e-10 10.2786 0.731801 0.0259123 -2.61693e-10 -6.49571e-10 8.37163e-10 2.22167 -0.733487 -0.20892 -1.13295e-14 -6.23356e-14 7.60351e-15 -21.5193 36.6819 1.38782 13.3545 -8.35486 -21.0041 2.81523e-05 0.321286 -0.0451538 -3.05386e-11 -9.70207e-10 -6.58873e-10 -5.23486e-11 -1.68157e-09 -1.14243e-09 -3.05398e-11 -9.70206e-10 -6.58869e-10 -7.73091 5.47488 -0.417314 -3.0537e-11 -9.70205e-10 -6.58875e-10 -2.90554 0.965183 -0.102902 -3.05455e-11 -9.70204e-10 -6.58873e-10 -10.2786 0.731801 -0.0259123 -3.05376e-11 -9.70202e-10 -6.58884e-10 -2.22167 -0.733487 0.20892 -2.03217e-16 0.0 -3.88251e-19 -0.761129 -20.8621 -1.74704 0.0801416 19.5629 0.644376 -1.82334 -4.95081 -12.6514 2.03217e-16 0.0 3.88251e-19 -9.23696 -5.98734 -10.5374 -0.0179057 7.83821 -0.163347 1.34863 -9.71135 10.1678
-93.4999 82.4991 8.25326 25.8265 86.1707 32.8248 1.95614 7.19603 24.3446 -34.3279 -19.3806 0.873059 7.44722 2.45698 -8.25979 17.7054 29.7012 -16.8022 -0.0 0.0 0.0 -0.0 0.0 0.0 -1.83914e-14 -8.77188e-14 1.30398e-14 90.8383 -0.558308 -26.5395 -18.3308 -12.273 32.5282 -0.00361731 -1.86392 -0.262035 -3.24633e-10 -9.06947e-10 1.18718e-09 -5.66499e-10 -1.57332e-09 2.05889e-09 -3.24629e-10 -9.06946e-10 1.18717e-09 7.73091 5.47488 0.417314 -3.24632e-10 -9.06948e-10 1.18718e-09 2.90554 0.965183 0.102902 -3.24628e-10 -9.06947e-10 1.18718e-09 10.2786 0.731801 0.0259123 -3.24632e-10 -9.06943e-10 1.18718e-09 2.22167 -0.733487 -0.20892 -1.85156e-14 -8.77025e-14 1.27471e-14 -32.2917 53.5219 2.64024 17.5042 -11.2737 -31.0048 0.000210563 0.468842 -0.0658925 -8.02643e-11 -1.38128e-09 -9.55667e-10 -1.38064e-10 -2.39392e-09 -1.65674e-09 -8.02645e-11 -1.38128e-09 -9.55661e-10 -7.73091 5.47488 -0.417314 -8.02623e-11 -1.38128e-09 -9.55668e-10 -2.90554 0.965183 -0.102902 -8.02717e-11 -1.38127e-09 -9.55666e-10 -10.2786 0.731801 -0.0259123 -8.02653e-11 -1.38127e-09 -9.55679e-10 -2.22167 -0.733487 0.20892 -2.03217e-16 0.0 -3.88251e-19 -1.7417 -28.2228 -2.27345 -0.0144761 26.6714 0.975774 -3.55162 -7.94842 -18.6856 2.03217e-16 0.0 3.88251e-19 -13.8995 -7.28935 -15.4495 -0.00696802 11.6522 -0.258596 3.4285 -15.3274 15.2425
-92.5219 82.678 8.11137 29.5466 86.1133 36.5975 1.41576 8.29327 29.6962 -41.7286 -23.6533 1.07022 9.24964 2.97464 -10.0707 24.3195 35.4978 -21.9434 -0.0 0.0 0.0 -0.0 0.0 0.0 -3.01594e-14 -9.38361e-14 2.2413e-14 110.676 -0.772649 -32.4645 -20.6142 -13.8044 40.1925 -0.00552491 -2.12184 -0.298343 -1.54228e-10 -9.40312e-10 1.30825e-09 -2.72194e-10 -1.631e-09 2.26772e-09 -1.54224e-10 -9.40311e-10 1.30824e-09 7.73091 5.47488 0.417314 -1.54227e-10 -9.40313e-10 1.30825e-09 2.90554 0.965183 0.102902 -1.54223e-10 -9.40312e-10 1.30825e-09 10.2786 0.731801 0.0259123 -1.54226e-10 -9.40309e-10 1.30824e-09 2.22167 -0.733487 -0.20892 -3.02732e-14 -9.38174e-14 2.21148e-14 -40.4571 65.4108 4.06907 19.8532 -12.8283 -38.3249 0.000402375 0.572771 -0.0805004 -2.37858e-10 -1.54633e-09 -1.14405e-09 -4.1017e-10 -2.67948e-09 -1.98203e-09 -2.37858e-10 -1.54633e-09 -1.14404e-09 -7.73091 5.47488 -0.417314 -2.37856e-10 -1.54633e-09 -1.14405e-09 -2.90554 0.965183 -0.102902 -2.37866e-10 -1.54633e-09 -1.14404e-09 -10.2786 0.731801 -0.0259123 -2.3786e-10 -1.54632e-09 -1.14406e-09 -2.22167 -0.733487 0.20892 -2.03217e-16 0.0 -3.88251e-19 -2.28172 -33.2417 -1.19984 -0.0998856 29.8732 1.16897 -5.41394 -10.4937 -23.3405 2.03217e-16 0.0 3.88251e-19 -17.2886 -7.80584 -18.9836 0.00764427 13.9832 -0.304622 5.46201 -18.7714 19.1034
